FILE "Heart of the Alien - Out of This World Parts I and II (1994)(Virgin)(US).img" BINARY
  TRACK 01 MODE1/2352
    INDEX 01 00:00:00
  TRACK 02 AUDIO
    PREGAP 00:02:00
    INDEX 01 01:08:32
  TRACK 03 AUDIO
    INDEX 00 01:22:30
    INDEX 01 01:24:30
  TRACK 04 AUDIO
    INDEX 00 04:10:43
    INDEX 01 04:12:43
  TRACK 05 AUDIO
    INDEX 00 04:58:27
    INDEX 01 05:00:27
  TRACK 06 AUDIO
    INDEX 00 05:16:73
    INDEX 01 05:18:73
  TRACK 07 AUDIO
    INDEX 00 06:51:61
    INDEX 01 06:53:61
  TRACK 08 AUDIO
    INDEX 00 08:06:06
    INDEX 01 08:08:06
  TRACK 09 AUDIO
    INDEX 00 09:43:23
    INDEX 01 09:45:23
  TRACK 10 AUDIO
    INDEX 00 09:57:39
    INDEX 01 09:59:39
  TRACK 11 AUDIO
    INDEX 00 11:16:60
    INDEX 01 11:18:60
  TRACK 12 AUDIO
    INDEX 00 12:27:26
    INDEX 01 12:29:26
  TRACK 13 AUDIO
    INDEX 00 13:13:35
    INDEX 01 13:15:35
  TRACK 14 AUDIO
    INDEX 00 17:44:27
    INDEX 01 17:46:27
  TRACK 15 AUDIO
    INDEX 00 17:58:03
    INDEX 01 18:00:03
  TRACK 16 AUDIO
    INDEX 00 20:34:46
    INDEX 01 20:36:46
  TRACK 17 AUDIO
    INDEX 00 22:25:07
    INDEX 01 22:27:07
  TRACK 18 AUDIO
    INDEX 00 23:36:74
    INDEX 01 23:38:74
  TRACK 19 AUDIO
    INDEX 00 24:49:35
    INDEX 01 24:51:35
  TRACK 20 AUDIO
    INDEX 00 26:31:27
    INDEX 01 26:33:27
  TRACK 21 AUDIO
    INDEX 00 26:50:27
    INDEX 01 26:52:28
  TRACK 22 AUDIO
    INDEX 00 27:34:69
    INDEX 01 27:36:69
  TRACK 23 AUDIO
    INDEX 00 28:53:48
    INDEX 01 28:55:48
  TRACK 24 AUDIO
    INDEX 00 30:10:31
    INDEX 01 30:12:31
  TRACK 25 AUDIO
    INDEX 00 31:00:16
    INDEX 01 31:02:16
  TRACK 26 AUDIO
    INDEX 00 33:38:20
    INDEX 01 33:40:21
  TRACK 27 AUDIO
    INDEX 00 33:47:27
    INDEX 01 33:49:27
  TRACK 28 AUDIO
    INDEX 00 33:53:40
    INDEX 01 33:55:40
  TRACK 29 AUDIO
    INDEX 00 33:59:53
    INDEX 01 34:01:53
  TRACK 30 AUDIO
    INDEX 00 34:05:66
    INDEX 01 34:07:66
  TRACK 31 AUDIO
    INDEX 00 34:12:48
    INDEX 01 34:14:48
  TRACK 32 AUDIO
    INDEX 00 34:19:04
    INDEX 01 34:21:04
  TRACK 33 AUDIO
    INDEX 00 35:17:70
    INDEX 01 35:19:70
  TRACK 34 AUDIO
    INDEX 00 35:58:01
    INDEX 01 36:00:01
  TRACK 35 AUDIO
    INDEX 00 37:03:23
    INDEX 01 37:05:23
  TRACK 36 AUDIO
    INDEX 00 38:16:39
    INDEX 01 38:18:39
  TRACK 37 AUDIO
    INDEX 00 39:02:47
    INDEX 01 39:04:47
  TRACK 38 AUDIO
    INDEX 00 39:42:15
    INDEX 01 39:44:15
  TRACK 39 AUDIO
    INDEX 00 40:24:52
    INDEX 01 40:26:52
  TRACK 40 AUDIO
    INDEX 00 41:01:42
    INDEX 01 41:03:43
  TRACK 41 AUDIO
    INDEX 00 41:36:66
    INDEX 01 41:38:66
  TRACK 42 AUDIO
    INDEX 00 42:02:03
    INDEX 01 42:04:03
